<svg xmlns="http://www.w3.org/2000/svg" width="900" height="560" viewBox="0 0 900 560">
  <rect width="100%" height="100%" fill="#ffffff"/>
  <text x="450.0" y="30" text-anchor="middle" font-size="22" font-weight="700" fill="#111">Average House Price by Neighborhood</text>
  <line x1="94" y1="474.0" x2="864" y2="474.0" stroke="#e5e5e5"/><text x="84" y="478.0" text-anchor="end" font-size="12" fill="#444">$0</text><line x1="94" y1="390.0" x2="864" y2="390.0" stroke="#e5e5e5"/><text x="84" y="394.0" text-anchor="end" font-size="12" fill="#444">$45,433</text><line x1="94" y1="306.0" x2="864" y2="306.0" stroke="#e5e5e5"/><text x="84" y="310.0" text-anchor="end" font-size="12" fill="#444">$90,866</text><line x1="94" y1="222.0" x2="864" y2="222.0" stroke="#e5e5e5"/><text x="84" y="226.0" text-anchor="end" font-size="12" fill="#444">$136,300</text><line x1="94" y1="138.0" x2="864" y2="138.0" stroke="#e5e5e5"/><text x="84" y="142.0" text-anchor="end" font-size="12" fill="#444">$181,733</text><line x1="94" y1="54.0" x2="864" y2="54.0" stroke="#e5e5e5"/><text x="84" y="58.0" text-anchor="end" font-size="12" fill="#444">$227,166</text><line x1="94" y1="474" x2="864" y2="474" stroke="#333"/><line x1="94" y1="54" x2="94" y2="474" stroke="#333"/><rect x="147.9" y="54.0" width="148.9" height="420.0" fill="#c96f3d"/><text x="222.3" y="46.0" text-anchor="middle" font-size="12" fill="#333">$227,166</text><text x="222.3" y="496" text-anchor="middle" font-size="13" fill="#333">Urban</text><rect x="404.6" y="59.7" width="148.9" height="414.3" fill="#c96f3d"/><text x="479.0" y="51.7" text-anchor="middle" font-size="12" fill="#333">$224,096</text><text x="479.0" y="496" text-anchor="middle" font-size="13" fill="#333">Rural</text><rect x="661.2" y="61.3" width="148.9" height="412.7" fill="#c96f3d"/><text x="735.7" y="53.3" text-anchor="middle" font-size="12" fill="#333">$223,234</text><text x="735.7" y="496" text-anchor="middle" font-size="13" fill="#333">Suburb</text>
  <text x="450.0" y="536" text-anchor="middle" font-size="16" fill="#222">Neighborhood</text><text x="24" y="280.0" text-anchor="middle" transform="rotate(-90 24 280.0)" font-size="16" fill="#222">Average House Price</text>
</svg>
