<svg xmlns="http://www.w3.org/2000/svg" width="900" height="560" viewBox="0 0 900 560">
  <rect width="100%" height="100%" fill="#ffffff"/>
  <text x="450.0" y="30" text-anchor="middle" font-size="22" font-weight="700" fill="#111">Numeric Feature Correlation with Price</text>
  <line x1="94" y1="474.0" x2="864" y2="474.0" stroke="#e5e5e5"/><text x="84" y="478.0" text-anchor="end" font-size="12" fill="#444">-1.0</text><line x1="94" y1="390.0" x2="864" y2="390.0" stroke="#e5e5e5"/><text x="84" y="394.0" text-anchor="end" font-size="12" fill="#444">-0.6</text><line x1="94" y1="306.0" x2="864" y2="306.0" stroke="#e5e5e5"/><text x="84" y="310.0" text-anchor="end" font-size="12" fill="#444">-0.2</text><line x1="94" y1="222.0" x2="864" y2="222.0" stroke="#e5e5e5"/><text x="84" y="226.0" text-anchor="end" font-size="12" fill="#444">0.2</text><line x1="94" y1="138.0" x2="864" y2="138.0" stroke="#e5e5e5"/><text x="84" y="142.0" text-anchor="end" font-size="12" fill="#444">0.6</text><line x1="94" y1="54.0" x2="864" y2="54.0" stroke="#e5e5e5"/><text x="84" y="58.0" text-anchor="end" font-size="12" fill="#444">1.0</text><line x1="94" y1="474" x2="864" y2="474" stroke="#333"/><line x1="94" y1="54" x2="94" y2="474" stroke="#333"/><line x1="94" y1="264.0" x2="864" y2="264.0" stroke="#555" stroke-width="1.2"/><rect x="137.3" y="106.3" width="105.9" height="157.7" fill="#2f6f9f"/><text x="190.2" y="98.3" text-anchor="middle" font-size="12" fill="#333">0.751</text><text x="190.2" y="496" text-anchor="middle" font-size="13" fill="#333">SquareFeet</text><rect x="329.8" y="248.7" width="105.9" height="15.3" fill="#2f6f9f"/><text x="382.8" y="240.7" text-anchor="middle" font-size="12" fill="#333">0.073</text><text x="382.8" y="496" text-anchor="middle" font-size="13" fill="#333">Bedrooms</text><rect x="522.3" y="258.0" width="105.9" height="6.0" fill="#2f6f9f"/><text x="575.2" y="250.0" text-anchor="middle" font-size="12" fill="#333">0.028</text><text x="575.2" y="496" text-anchor="middle" font-size="13" fill="#333">Bathrooms</text><rect x="714.8" y="264.0" width="105.9" height="0.5" fill="#2f6f9f"/><text x="767.8" y="256.0" text-anchor="middle" font-size="12" fill="#333">-0.002</text><text x="767.8" y="496" text-anchor="middle" font-size="13" fill="#333">YearBuilt</text>
  <text x="450.0" y="536" text-anchor="middle" font-size="16" fill="#222">Feature</text><text x="24" y="280.0" text-anchor="middle" transform="rotate(-90 24 280.0)" font-size="16" fill="#222">Correlation Coefficient</text>
</svg>
