<svg xmlns="http://www.w3.org/2000/svg" width="900" height="560" viewBox="0 0 900 560">
  <rect width="100%" height="100%" fill="#ffffff"/>
  <text x="450.0" y="30" text-anchor="middle" font-size="22" font-weight="700" fill="#111">Distribution of House Prices</text>
  <line x1="94" y1="474.0" x2="864" y2="474.0" stroke="#e5e5e5"/><text x="84" y="478.0" text-anchor="end" font-size="12" fill="#444">0</text><line x1="94" y1="390.0" x2="864" y2="390.0" stroke="#e5e5e5"/><text x="84" y="394.0" text-anchor="end" font-size="12" fill="#444">2048</text><line x1="94" y1="306.0" x2="864" y2="306.0" stroke="#e5e5e5"/><text x="84" y="310.0" text-anchor="end" font-size="12" fill="#444">4096</text><line x1="94" y1="222.0" x2="864" y2="222.0" stroke="#e5e5e5"/><text x="84" y="226.0" text-anchor="end" font-size="12" fill="#444">6143</text><line x1="94" y1="138.0" x2="864" y2="138.0" stroke="#e5e5e5"/><text x="84" y="142.0" text-anchor="end" font-size="12" fill="#444">8191</text><line x1="94" y1="54.0" x2="864" y2="54.0" stroke="#e5e5e5"/><text x="84" y="58.0" text-anchor="end" font-size="12" fill="#444">10239</text><line x1="94" y1="474" x2="864" y2="474" stroke="#333"/><line x1="94" y1="54" x2="94" y2="474" stroke="#333"/><rect x="96.0" y="472.7" width="60.2" height="1.3" fill="#3f8f6b"/><text x="126.1" y="492" text-anchor="middle" font-size="11" fill="#444">$-36,588</text><rect x="160.2" y="459.5" width="60.2" height="14.5" fill="#3f8f6b"/><rect x="224.3" y="398.2" width="60.2" height="75.8" fill="#3f8f6b"/><text x="254.4" y="492" text-anchor="middle" font-size="11" fill="#444">$51,542</text><rect x="288.5" y="278.4" width="60.2" height="195.6" fill="#3f8f6b"/><rect x="352.7" y="128.2" width="60.2" height="345.8" fill="#3f8f6b"/><text x="382.8" y="492" text-anchor="middle" font-size="11" fill="#444">$139,673</text><rect x="416.8" y="54.0" width="60.2" height="420.0" fill="#3f8f6b"/><rect x="481.0" y="56.6" width="60.2" height="417.4" fill="#3f8f6b"/><text x="511.1" y="492" text-anchor="middle" font-size="11" fill="#444">$227,804</text><rect x="545.2" y="146.1" width="60.2" height="327.9" fill="#3f8f6b"/><rect x="609.3" y="293.1" width="60.2" height="180.9" fill="#3f8f6b"/><text x="639.4" y="492" text-anchor="middle" font-size="11" fill="#444">$315,934</text><rect x="673.5" y="413.9" width="60.2" height="60.1" fill="#3f8f6b"/><rect x="737.7" y="463.3" width="60.2" height="10.7" fill="#3f8f6b"/><text x="767.8" y="492" text-anchor="middle" font-size="11" fill="#444">$404,065</text><rect x="801.8" y="473.0" width="60.2" height="1.0" fill="#3f8f6b"/>
  <text x="450.0" y="536" text-anchor="middle" font-size="16" fill="#222">House Price Range</text><text x="24" y="280.0" text-anchor="middle" transform="rotate(-90 24 280.0)" font-size="16" fill="#222">Number of Houses</text>
</svg>
